<svg width="29" height="33" viewBox="0 0 29 33" fill="none" xmlns="http://www.w3.org/2000/svg">
<path d="M10.5258 1.37627C10.3857 1.14283 10.1334 1 9.8612 1H2.3688C1.76639 1 1.39431 1.65718 1.70424 2.17373L10.0742 16.1237C10.2143 16.3572 10.4666 16.5 10.7388 16.5H18.2312C18.8336 16.5 19.2057 15.8428 18.8958 15.3263L10.5258 1.37627Z" fill="#C52229"/>
<path fill-rule="evenodd" clip-rule="evenodd" d="M9.86121 0.225006H2.3688C1.16399 0.225006 0.419818 1.53936 1.03969 2.57247L9.40969 16.5225C9.68981 16.9893 10.1943 17.275 10.7388 17.275H18.2312C19.436 17.275 20.1802 15.9607 19.5603 14.9275L11.1903 0.977538C10.9102 0.51067 10.4057 0.225006 9.86121 0.225006ZM9.86121 1.00001C10.1334 1.00001 10.3857 1.14284 10.5258 1.37627L18.8958 15.3263C19.2057 15.8428 18.8336 16.5 18.2312 16.5H10.7388C10.4666 16.5 10.2143 16.3572 10.0742 16.1237L1.70424 2.17374C1.39431 1.65718 1.7664 1.00001 2.3688 1.00001H9.86121Z" fill="#9B0F15"/>
<path d="M18.5992 1.37627C18.7393 1.14283 18.9916 1 19.2638 1H26.7562C27.3586 1 27.7307 1.65718 27.4208 2.17373L19.0508 16.1237C18.9107 16.3572 18.6584 16.5 18.3862 16.5H10.8938C10.2914 16.5 9.91931 15.8428 10.2292 15.3263L18.5992 1.37627Z" fill="#F1333B"/>
<path fill-rule="evenodd" clip-rule="evenodd" d="M19.2638 0.225006H26.7562C27.961 0.225006 28.7052 1.53936 28.0853 2.57247L19.7153 16.5225C19.4352 16.9893 18.9307 17.275 18.3862 17.275H10.8938C9.68899 17.275 8.94481 15.9607 9.56468 14.9275L17.9347 0.977538C18.2148 0.51067 18.7193 0.225006 19.2638 0.225006ZM19.2638 1.00001C18.9916 1.00001 18.7393 1.14284 18.5992 1.37627L10.2292 15.3263C9.9193 15.8428 10.2914 16.5 10.8938 16.5H18.3862C18.6584 16.5 18.9107 16.3572 19.0508 16.1237L27.4208 2.17374C27.7307 1.65718 27.3586 1.00001 26.7562 1.00001H19.2638Z" fill="#9B0F15"/>
<path fill-rule="evenodd" clip-rule="evenodd" d="M19.4071 1.43991C19.5921 1.54737 19.6551 1.78452 19.5476 1.96959L16.0601 7.97584C15.9526 8.16092 15.7155 8.22383 15.5304 8.11637C15.3453 8.00891 15.2824 7.77176 15.3899 7.58669L18.8774 1.58044C18.9849 1.39536 19.222 1.33245 19.4071 1.43991Z" fill="#FE666D"/>
<path fill-rule="evenodd" clip-rule="evenodd" d="M2.35542 1.43991C2.17035 1.54737 2.10743 1.78452 2.21489 1.96959L5.70239 7.97584C5.80986 8.16092 6.047 8.22383 6.23208 8.11637C6.41715 8.00891 6.48007 7.77176 6.37261 7.58669L2.88511 1.58044C2.77764 1.39536 2.5405 1.33245 2.35542 1.43991Z" fill="#DF3840"/>
<path d="M9.71875 2.27148C9.71875 2.54568 9.50189 2.76796 9.23438 2.76796C8.96686 2.76796 8.75 2.54568 8.75 2.27148C8.75 1.99728 8.96686 1.77499 9.23438 1.77499C9.50189 1.77499 9.71875 1.99728 9.71875 2.27148Z" fill="#AA161D"/>
<path d="M8.01753 2.39257C8.01753 2.73365 7.74778 3.01015 7.41502 3.01015C7.08226 3.01015 6.8125 2.73365 6.8125 2.39257C6.8125 2.05149 7.08226 1.77499 7.41502 1.77499C7.74778 1.77499 8.01753 2.05149 8.01753 2.39257Z" fill="#AA161D"/>
<path d="M9.52501 4.16055C9.52501 4.50163 9.25525 4.77813 8.92249 4.77813C8.58973 4.77813 8.31998 4.50163 8.31998 4.16055C8.31998 3.81947 8.58973 3.54297 8.92249 3.54297C9.25525 3.54297 9.52501 3.81947 9.52501 4.16055Z" fill="#AA161D"/>
<path d="M10.9025 3.31895C10.9025 3.48949 10.7676 3.62774 10.6013 3.62774C10.4349 3.62774 10.3 3.48949 10.3 3.31895C10.3 3.14841 10.4349 3.01016 10.6013 3.01016C10.7676 3.01016 10.9025 3.14841 10.9025 3.31895Z" fill="#AA161D"/>
<path d="M7.71627 3.85176C7.71627 4.0223 7.58139 4.16055 7.41501 4.16055C7.24863 4.16055 7.11375 4.0223 7.11375 3.85176C7.11375 3.68122 7.24863 3.54297 7.41501 3.54297C7.58139 3.54297 7.71627 3.68122 7.71627 3.85176Z" fill="#AA161D"/>
<path d="M6.0375 1.96269C6.0375 2.13323 5.90262 2.27148 5.73624 2.27148C5.56986 2.27148 5.43498 2.13323 5.43498 1.96269C5.43498 1.79215 5.56986 1.6539 5.73624 1.6539C5.90262 1.6539 6.0375 1.79215 6.0375 1.96269Z" fill="#AA161D"/>
<path d="M10.6013 5.47441C10.6013 5.64495 10.4664 5.7832 10.3 5.7832C10.1336 5.7832 9.99875 5.64495 9.99875 5.47441C9.99875 5.30387 10.1336 5.16562 10.3 5.16562C10.4664 5.16562 10.6013 5.30387 10.6013 5.47441Z" fill="#AA161D"/>
<path d="M9.05126 5.78322C9.05126 5.95375 8.91638 6.092 8.75 6.092C8.58362 6.092 8.44875 5.95375 8.44875 5.78322C8.44875 5.61268 8.58362 5.47443 8.75 5.47443C8.91638 5.47443 9.05126 5.61268 9.05126 5.78322Z" fill="#AA161D"/>
<path d="M12.0556 4.66309C12.0556 4.94064 11.8361 5.16563 11.5653 5.16563C11.2945 5.16563 11.075 4.94064 11.075 4.66309C11.075 4.38555 11.2945 4.16055 11.5653 4.16055C11.8361 4.16055 12.0556 4.38555 12.0556 4.66309Z" fill="#AA161D"/>
<path d="M12.6947 6.09199C12.6947 6.26253 12.5598 6.40078 12.3935 6.40078C12.2271 6.40078 12.0922 6.26253 12.0922 6.09199C12.0922 5.92145 12.2271 5.7832 12.3935 5.7832C12.5598 5.7832 12.6947 5.92145 12.6947 6.09199Z" fill="#AA161D"/>
<path d="M25.025 21.5375C25.025 27.3158 20.3408 32 14.5625 32C8.78421 32 4.09999 27.3158 4.09999 21.5375C4.09999 15.7592 8.78421 11.075 14.5625 11.075C20.3408 11.075 25.025 15.7592 25.025 21.5375Z" fill="#DCA16A"/>
<path fill-rule="evenodd" clip-rule="evenodd" d="M25.8 21.5375C25.8 27.7438 20.7688 32.775 14.5625 32.775C8.3562 32.775 3.325 27.7438 3.325 21.5375C3.325 15.3312 8.3562 10.3 14.5625 10.3C20.7688 10.3 25.8 15.3312 25.8 21.5375ZM14.5625 32C20.3408 32 25.025 27.3158 25.025 21.5375C25.025 15.7592 20.3408 11.075 14.5625 11.075C8.78422 11.075 4.1 15.7592 4.1 21.5375C4.1 27.3158 8.78422 32 14.5625 32Z" fill="#C38144"/>
<path fill-rule="evenodd" clip-rule="evenodd" d="M4.875 21.925C4.66099 21.925 4.4875 21.7515 4.4875 21.5375C4.4875 15.9732 8.99823 11.4625 14.5625 11.4625C14.7765 11.4625 14.95 11.636 14.95 11.85C14.95 12.064 14.7765 12.2375 14.5625 12.2375C9.42625 12.2375 5.2625 16.4012 5.2625 21.5375C5.2625 21.7515 5.08901 21.925 4.875 21.925Z" fill="#F0B57F"/>
<path fill-rule="evenodd" clip-rule="evenodd" d="M24.25 21.15C24.464 21.15 24.6375 21.3235 24.6375 21.5375C24.6375 27.1018 20.1268 31.6125 14.5625 31.6125C14.3485 31.6125 14.175 31.439 14.175 31.225C14.175 31.011 14.3485 30.8375 14.5625 30.8375C19.6987 30.8375 23.8625 26.6737 23.8625 21.5375C23.8625 21.3235 24.036 21.15 24.25 21.15Z" fill="#CF945D"/>
<path d="M22.3125 21.5375C22.3125 25.8177 18.8427 29.2875 14.5625 29.2875C10.2823 29.2875 6.81248 25.8177 6.81248 21.5375C6.81248 17.2573 10.2823 13.7875 14.5625 13.7875C18.8427 13.7875 22.3125 17.2573 22.3125 21.5375Z" fill="#F7BA82"/>
<path fill-rule="evenodd" clip-rule="evenodd" d="M23.0875 21.5375C23.0875 26.2457 19.2707 30.0625 14.5625 30.0625C9.85426 30.0625 6.03749 26.2457 6.03749 21.5375C6.03749 16.8293 9.85426 13.0125 14.5625 13.0125C19.2707 13.0125 23.0875 16.8293 23.0875 21.5375ZM14.5625 29.2875C18.8427 29.2875 22.3125 25.8177 22.3125 21.5375C22.3125 17.2573 18.8427 13.7875 14.5625 13.7875C10.2823 13.7875 6.81249 17.2573 6.81249 21.5375C6.81249 25.8177 10.2823 29.2875 14.5625 29.2875Z" fill="#C38144"/>
<path fill-rule="evenodd" clip-rule="evenodd" d="M14.5625 28.125C18.2007 28.125 21.15 25.1757 21.15 21.5375C21.15 21.3235 21.3235 21.15 21.5375 21.15C21.7515 21.15 21.925 21.3235 21.925 21.5375C21.925 25.6037 18.6287 28.9 14.5625 28.9C14.3485 28.9 14.175 28.7265 14.175 28.5125C14.175 28.2985 14.3485 28.125 14.5625 28.125Z" fill="#E6A66C"/>
<path fill-rule="evenodd" clip-rule="evenodd" d="M14.5625 14.95C10.9243 14.95 7.975 17.8993 7.975 21.5375C7.975 21.7515 7.80151 21.925 7.5875 21.925C7.37349 21.925 7.2 21.7515 7.2 21.5375C7.2 17.4713 10.4963 14.175 14.5625 14.175C14.7765 14.175 14.95 14.3485 14.95 14.5625C14.95 14.7765 14.7765 14.95 14.5625 14.95Z" fill="#FFD5AE"/>
<path d="M13.6437 21.239H14.343C14.567 21.239 14.7517 21.2012 14.897 21.1255C15.0423 21.0468 15.1498 20.9378 15.2194 20.7985C15.2921 20.6562 15.3284 20.4912 15.3284 20.3036C15.3284 20.134 15.2951 19.9842 15.2285 19.854C15.1649 19.7208 15.0666 19.6179 14.9334 19.5452C14.8002 19.4695 14.6321 19.4317 14.4293 19.4317C14.2689 19.4317 14.1205 19.4635 13.9843 19.527C13.8481 19.5906 13.7391 19.6799 13.6573 19.795C13.5756 19.91 13.5347 20.0493 13.5347 20.2127H12.2224C12.2224 19.8495 12.3192 19.5331 12.513 19.2637C12.7098 18.9942 12.9732 18.7838 13.3031 18.6325C13.6331 18.4811 13.9964 18.4054 14.393 18.4054C14.841 18.4054 15.2331 18.4781 15.5691 18.6234C15.9051 18.7657 16.167 18.9761 16.3547 19.2546C16.5424 19.5331 16.6362 19.8782 16.6362 20.2899C16.6362 20.4988 16.5878 20.7016 16.4909 20.8984C16.394 21.0922 16.2548 21.2678 16.0732 21.4252C15.8945 21.5796 15.6766 21.7037 15.4192 21.7975C15.1619 21.8884 14.8728 21.9338 14.5519 21.9338H13.6437V21.239ZM13.6437 22.2335V21.5569H14.5519C14.9122 21.5569 15.2285 21.5977 15.501 21.6795C15.7734 21.7612 16.002 21.8793 16.1867 22.0337C16.3713 22.185 16.5106 22.3652 16.6044 22.5741C16.6983 22.7799 16.7452 23.0085 16.7452 23.2598C16.7452 23.5685 16.6862 23.844 16.5681 24.0862C16.4501 24.3254 16.2836 24.5282 16.0686 24.6947C15.8567 24.8612 15.6085 24.9884 15.3239 25.0762C15.0393 25.1609 14.729 25.2033 14.393 25.2033C14.1145 25.2033 13.8405 25.1655 13.5711 25.0898C13.3046 25.0111 13.0625 24.8945 12.8445 24.7401C12.6295 24.5827 12.457 24.3859 12.3268 24.1498C12.1997 23.9106 12.1361 23.6276 12.1361 23.3006H13.4484C13.4484 23.4702 13.4908 23.6215 13.5756 23.7547C13.6604 23.8879 13.7769 23.9924 13.9253 24.0681C14.0766 24.1437 14.2446 24.1816 14.4293 24.1816C14.6382 24.1816 14.8168 24.1437 14.9651 24.0681C15.1165 23.9893 15.2315 23.8804 15.3103 23.7411C15.392 23.5988 15.4329 23.4338 15.4329 23.2461C15.4329 23.0039 15.389 22.8102 15.3012 22.6649C15.2134 22.5165 15.0878 22.4076 14.9243 22.3379C14.7608 22.2683 14.567 22.2335 14.343 22.2335H13.6437Z" fill="#FFD5AE"/>
<path d="M13.6437 21.239V20.464C13.2157 20.464 12.8687 20.811 12.8687 21.239H13.6437ZM14.897 21.1255L15.2551 21.8129L15.2661 21.8069L14.897 21.1255ZM15.2194 20.7985L14.5292 20.4461L14.5263 20.4519L15.2194 20.7985ZM15.2285 19.854L14.5291 20.1878C14.5322 20.1942 14.5353 20.2006 14.5386 20.207L15.2285 19.854ZM14.9334 19.5452L14.5504 20.2191L14.5622 20.2256L14.9334 19.5452ZM13.5347 20.2127V20.9877C13.9627 20.9877 14.3097 20.6408 14.3097 20.2127H13.5347ZM12.2224 20.2127H11.4474C11.4474 20.6408 11.7943 20.9877 12.2224 20.9877V20.2127ZM12.513 19.2637L11.8871 18.8066L11.8838 18.8112L12.513 19.2637ZM13.3031 18.6325L12.98 17.928L13.3031 18.6325ZM15.5691 18.6234L15.2615 19.3347L15.2669 19.337L15.5691 18.6234ZM16.3547 19.2546L16.9974 18.8215L16.3547 19.2546ZM16.4909 20.8984L17.1841 21.245L17.1862 21.2407L16.4909 20.8984ZM16.0732 21.4252L16.58 22.0115L16.5807 22.0108L16.0732 21.4252ZM15.4192 21.7975L15.6772 22.5284L15.6848 22.5256L15.4192 21.7975ZM13.6437 21.9338H12.8687C12.8687 22.3618 13.2157 22.7088 13.6437 22.7088V21.9338ZM13.6437 22.2335H12.8687C12.8687 22.6615 13.2157 23.0085 13.6437 23.0085V22.2335ZM13.6437 21.5569V20.7819C13.2157 20.7819 12.8687 21.1289 12.8687 21.5569H13.6437ZM16.1867 22.0337L15.6896 22.6283L15.6954 22.6331L16.1867 22.0337ZM16.6044 22.5741L15.8975 22.8917L15.8993 22.8955L16.6044 22.5741ZM16.5681 24.0862L17.2631 24.4293L17.2648 24.4258L16.5681 24.0862ZM16.0686 24.6947L15.594 24.082L15.5898 24.0853L16.0686 24.6947ZM15.3239 25.0762L15.5451 25.8189L15.5524 25.8167L15.3239 25.0762ZM13.5711 25.0898L13.3514 25.8331L13.3615 25.8359L13.5711 25.0898ZM12.8445 24.7401L12.3865 25.3654L12.3965 25.3725L12.8445 24.7401ZM12.3268 24.1498L11.6424 24.5136L11.6481 24.5239L12.3268 24.1498ZM12.1361 23.3006V22.5256C11.7081 22.5256 11.3611 22.8726 11.3611 23.3006H12.1361ZM13.4484 23.3006H14.2234C14.2234 22.8726 13.8765 22.5256 13.4484 22.5256V23.3006ZM13.9253 24.0681L13.573 24.7584L13.5787 24.7612L13.9253 24.0681ZM14.9651 24.0681L15.3174 24.7584L15.3227 24.7556L14.9651 24.0681ZM15.3103 23.7411L14.6382 23.355L14.6356 23.3598L15.3103 23.7411ZM15.3012 22.6649L14.6342 23.0596L14.6378 23.0656L15.3012 22.6649ZM13.6437 22.014H14.343V20.464H13.6437V22.014ZM14.343 22.014C14.6482 22.014 14.9661 21.9633 15.255 21.8128L14.539 20.4381C14.5373 20.439 14.4859 20.464 14.343 20.464V22.014ZM15.2661 21.8069C15.5422 21.6574 15.7674 21.4356 15.9126 21.1451L14.5263 20.4519C14.5265 20.4514 14.5274 20.4497 14.5292 20.4472C14.531 20.4447 14.533 20.4424 14.5348 20.4405C14.5366 20.4387 14.5375 20.4381 14.5369 20.4385C14.5362 20.439 14.5335 20.441 14.5279 20.444L15.2661 21.8069ZM15.9097 21.151C16.047 20.882 16.1034 20.5924 16.1034 20.3036H14.5534C14.5534 20.3901 14.5372 20.4305 14.5292 20.4461L15.9097 21.151ZM16.1034 20.3036C16.1034 20.0309 16.0493 19.7566 15.9185 19.501L14.5386 20.207C14.541 20.2117 14.5534 20.2372 14.5534 20.3036H16.1034ZM15.9279 19.5202C15.792 19.2354 15.5766 19.0132 15.3045 18.8648L14.5622 20.2256C14.5633 20.2262 14.5563 20.2224 14.5468 20.2124C14.5372 20.2023 14.5314 20.1927 14.5291 20.1878L15.9279 19.5202ZM15.3162 18.8714C15.0345 18.7113 14.7243 18.6567 14.4293 18.6567V20.2067C14.54 20.2067 14.5658 20.2277 14.5505 20.219L15.3162 18.8714ZM14.4293 18.6567C14.1634 18.6567 13.9022 18.7101 13.6565 18.8247L14.312 20.2293C14.3388 20.2168 14.3743 20.2067 14.4293 20.2067V18.6567ZM13.6565 18.8247C13.407 18.9412 13.1901 19.1145 13.0256 19.3461L14.2891 20.2438C14.2901 20.2425 14.2905 20.242 14.2916 20.2411C14.2929 20.2401 14.2986 20.2356 14.312 20.2293L13.6565 18.8247ZM13.0256 19.3461C12.8365 19.6122 12.7597 19.9147 12.7597 20.2127H14.3097C14.3097 20.1957 14.3118 20.1944 14.309 20.2039C14.3076 20.2086 14.3054 20.215 14.3018 20.2224C14.2982 20.2298 14.2939 20.2371 14.2891 20.2438L13.0256 19.3461ZM13.5347 19.4377H12.2224V20.9877H13.5347V19.4377ZM12.9974 20.2127C12.9974 19.9957 13.0523 19.8412 13.1422 19.7161L11.8838 18.8112C11.5862 19.225 11.4474 19.7032 11.4474 20.2127H12.9974ZM13.1389 19.7207C13.2507 19.5676 13.4058 19.438 13.6263 19.3369L12.98 17.928C12.5405 18.1296 12.1688 18.4209 11.8871 18.8066L13.1389 19.7207ZM13.6263 19.3369C13.8458 19.2362 14.0975 19.1804 14.393 19.1804V17.6304C13.8953 17.6304 13.4204 17.726 12.98 17.928L13.6263 19.3369ZM14.393 19.1804C14.7583 19.1804 15.0417 19.2397 15.2615 19.3347L15.8767 17.912C15.4244 17.7164 14.9237 17.6304 14.393 17.6304V19.1804ZM15.2669 19.337C15.4771 19.4261 15.6155 19.5445 15.712 19.6877L16.9974 18.8215C16.7185 18.4076 16.3331 18.1053 15.8713 17.9097L15.2669 19.337ZM15.712 19.6877C15.7957 19.8119 15.8612 19.9974 15.8612 20.2899H17.4112C17.4112 19.7591 17.2891 19.2543 16.9974 18.8215L15.712 19.6877ZM15.8612 20.2899C15.8612 20.3742 15.8428 20.4604 15.7956 20.5561L17.1862 21.2407C17.3328 20.9429 17.4112 20.6235 17.4112 20.2899H15.8612ZM15.7977 20.5518C15.7512 20.645 15.6787 20.7415 15.5656 20.8395L16.5807 22.0108C16.8309 21.794 17.0369 21.5394 17.1841 21.245L15.7977 20.5518ZM15.5663 20.8389C15.4693 20.9228 15.3366 21.0028 15.1537 21.0695L15.6848 22.5256C16.0165 22.4046 16.3198 22.2364 16.58 22.0115L15.5663 20.8389ZM15.1613 21.0667C15 21.1237 14.8001 21.1588 14.5519 21.1588V22.7088C14.9456 22.7088 15.3239 22.6531 15.6772 22.5284L15.1613 21.0667ZM14.5519 21.1588H13.6437V22.7088H14.5519V21.1588ZM14.4187 21.9338V21.239H12.8687V21.9338H14.4187ZM14.4187 22.2335V21.5569H12.8687V22.2335H14.4187ZM13.6437 22.3319H14.5519V20.7819H13.6437V22.3319ZM14.5519 22.3319C14.8558 22.3319 15.0943 22.3666 15.2783 22.4218L15.7237 20.9372C15.3627 20.8289 14.9685 20.7819 14.5519 20.7819V22.3319ZM15.2783 22.4218C15.4682 22.4788 15.5987 22.5523 15.6896 22.6283L16.6838 21.4391C16.4053 21.2063 16.0787 21.0437 15.7237 20.9372L15.2783 22.4218ZM15.6954 22.6331C15.7914 22.7118 15.8549 22.7968 15.8975 22.8917L17.3114 22.2565C17.1663 21.9335 16.9513 21.6583 16.678 21.4343L15.6954 22.6331ZM15.8993 22.8955C15.9422 22.9898 15.9702 23.1071 15.9702 23.2598H17.5202C17.5202 22.9099 17.4543 22.57 17.3096 22.2526L15.8993 22.8955ZM15.9702 23.2598C15.9702 23.4681 15.9309 23.6247 15.8715 23.7466L17.2648 24.4258C17.4414 24.0634 17.5202 23.669 17.5202 23.2598H15.9702ZM15.8732 23.7432C15.8082 23.8748 15.7179 23.9861 15.594 24.082L16.5432 25.3074C16.8492 25.0703 17.0919 24.776 17.2631 24.4293L15.8732 23.7432ZM15.5898 24.0853C15.46 24.1873 15.2987 24.2729 15.0954 24.3356L15.5524 25.8167C15.9182 25.7039 16.2534 25.5352 16.5474 25.3041L15.5898 24.0853ZM15.1026 24.3334C14.8986 24.3942 14.6638 24.4283 14.393 24.4283V25.9783C14.7942 25.9783 15.18 25.9277 15.5451 25.8189L15.1026 24.3334ZM14.393 24.4283C14.1857 24.4283 13.9822 24.4003 13.7806 24.3437L13.3615 25.8359C13.6988 25.9307 14.0433 25.9783 14.393 25.9783V24.4283ZM13.7906 24.3465C13.6026 24.291 13.4382 24.2109 13.2925 24.1077L12.3965 25.3725C12.6868 25.5781 13.0067 25.7311 13.3515 25.833L13.7906 24.3465ZM13.3024 24.1149C13.1796 24.0249 13.0819 23.9142 13.0055 23.7756L11.6481 24.5239C11.8321 24.8576 12.0795 25.1405 12.3866 25.3654L13.3024 24.1149ZM13.0111 23.786C12.9547 23.6798 12.9111 23.5268 12.9111 23.3006H11.3611C11.3611 23.7284 11.4447 24.1415 11.6425 24.5136L13.0111 23.786ZM12.1361 24.0756H13.4484V22.5256H12.1361V24.0756ZM12.6734 23.3006C12.6734 23.6062 12.752 23.904 12.9218 24.1708L14.2294 23.3386C14.2277 23.3359 14.2271 23.3345 14.2265 23.3323C14.2258 23.3298 14.2234 23.3203 14.2234 23.3006H12.6734ZM12.9218 24.1708C13.0849 24.4272 13.3085 24.6234 13.573 24.7584L14.2775 23.3777C14.2453 23.3613 14.2358 23.3487 14.2294 23.3386L12.9218 24.1708ZM13.5787 24.7612C13.8472 24.8955 14.1355 24.9566 14.4293 24.9566V23.4066C14.3538 23.4066 14.306 23.392 14.2718 23.3749L13.5787 24.7612ZM14.4293 24.9566C14.7302 24.9566 15.0357 24.9021 15.3174 24.7584L14.6129 23.3777C14.5979 23.3854 14.5462 23.4066 14.4293 23.4066V24.9566ZM15.3227 24.7556C15.5979 24.6125 15.8274 24.4012 15.9849 24.1224L14.6356 23.3598C14.6338 23.3629 14.6329 23.3637 14.6319 23.3647C14.6307 23.3659 14.6241 23.3719 14.6076 23.3805L15.3227 24.7556ZM15.9823 24.1271C16.1407 23.8514 16.2079 23.5495 16.2079 23.2461H14.6579C14.6579 23.3181 14.6433 23.3463 14.6383 23.3551L15.9823 24.1271ZM16.2079 23.2461C16.2079 22.9198 16.1501 22.5713 15.9645 22.2641L14.6378 23.0656C14.6278 23.0491 14.6579 23.0881 14.6579 23.2461H16.2079ZM15.9681 22.2702C15.7935 21.9751 15.5383 21.7571 15.228 21.6249L14.6206 23.0509C14.6272 23.0538 14.6309 23.0559 14.6325 23.0569C14.6339 23.0578 14.634 23.0579 14.6333 23.0573C14.6325 23.0567 14.6319 23.056 14.6317 23.0558C14.6315 23.0555 14.6324 23.0566 14.6342 23.0596L15.9681 22.2702ZM15.228 21.6249C14.9469 21.5052 14.6452 21.4585 14.343 21.4585V23.0085C14.4889 23.0085 14.5746 23.0314 14.6206 23.0509L15.228 21.6249ZM14.343 21.4585H13.6437V23.0085H14.343V21.4585Z" fill="#C28044"/>
</svg>
