<svg width="29" height="32" viewBox="0 0 29 32" fill="none" xmlns="http://www.w3.org/2000/svg">
<path d="M10.4819 1.36413C10.3424 1.13822 10.0913 1 9.82036 1H2.36248C1.76285 1 1.39248 1.63598 1.70099 2.13587L10.0324 15.6359C10.1718 15.8618 10.4229 16 10.6939 16H18.1518C18.7514 16 19.1218 15.364 18.8133 14.8641L10.4819 1.36413Z" fill="#C52229"/>
<path fill-rule="evenodd" clip-rule="evenodd" d="M9.82037 0.25H2.36249C1.16323 0.25 0.422488 1.52196 1.0395 2.52174L9.37093 16.0217C9.64976 16.4736 10.152 16.75 10.6939 16.75H18.1518C19.3511 16.75 20.0918 15.478 19.4748 14.4783L11.1434 0.978257C10.8645 0.526449 10.3623 0.25 9.82037 0.25ZM9.82037 1C10.0913 1 10.3424 1.13822 10.4819 1.36413L18.8133 14.8641C19.1218 15.364 18.7514 16 18.1518 16H10.6939C10.4229 16 10.1718 15.8618 10.0324 15.6359L1.70099 2.13587C1.39249 1.63598 1.76286 1 2.36249 1H9.82037Z" fill="#9B0F15"/>
<path d="M18.5181 1.36413C18.6575 1.13822 18.9087 1 19.1796 1H26.6375C27.2371 1 27.6075 1.63598 27.299 2.13587L18.9676 15.6359C18.8282 15.8618 18.577 16 18.3061 16H10.8482C10.2486 16 9.8782 15.364 10.1867 14.8641L18.5181 1.36413Z" fill="#F1333B"/>
<path fill-rule="evenodd" clip-rule="evenodd" d="M19.1796 0.25H26.6375C27.8368 0.25 28.5775 1.52196 27.9605 2.52174L19.6291 16.0217C19.3502 16.4736 18.848 16.75 18.3061 16.75H10.8482C9.64895 16.75 8.9082 15.478 9.52521 14.4783L17.8566 0.978257C18.1355 0.526449 18.6377 0.25 19.1796 0.25ZM19.1796 1C18.9087 1 18.6576 1.13822 18.5181 1.36413L10.1867 14.8641C9.8782 15.364 10.2486 16 10.8482 16H18.3061C18.5771 16 18.8282 15.8618 18.9676 15.6359L27.299 2.13587C27.6075 1.63598 27.2371 1 26.6375 1H19.1796Z" fill="#9B0F15"/>
<path fill-rule="evenodd" clip-rule="evenodd" d="M19.3222 1.4257C19.5065 1.5297 19.5691 1.7592 19.4621 1.9383L15.9907 7.7508C15.8837 7.92991 15.6477 7.99079 15.4635 7.8868C15.2792 7.7828 15.2166 7.5533 15.3236 7.3742L18.795 1.5617C18.902 1.3826 19.138 1.32171 19.3222 1.4257Z" fill="#FE666D"/>
<path fill-rule="evenodd" clip-rule="evenodd" d="M2.34918 1.4257C2.16496 1.5297 2.10234 1.7592 2.2093 1.9383L5.68073 7.7508C5.7877 7.92991 6.02375 7.99079 6.20797 7.8868C6.39219 7.7828 6.45482 7.5533 6.34785 7.3742L2.87643 1.5617C2.76946 1.3826 2.5334 1.32171 2.34918 1.4257Z" fill="#DF3840"/>
<path d="M9.67858 2.23047C9.67858 2.49582 9.46272 2.71094 9.19644 2.71094C8.93016 2.71094 8.71429 2.49582 8.71429 2.23047C8.71429 1.96511 8.93016 1.75 9.19644 1.75C9.46272 1.75 9.67858 1.96511 9.67858 2.23047Z" fill="#AA161D"/>
<path d="M7.9852 2.34766C7.9852 2.67773 7.71669 2.94531 7.38546 2.94531C7.05423 2.94531 6.78572 2.67773 6.78572 2.34766C6.78572 2.01758 7.05423 1.75 7.38546 1.75C7.71669 1.75 7.9852 2.01758 7.9852 2.34766Z" fill="#AA161D"/>
<path d="M9.48572 4.05859C9.48572 4.38867 9.21721 4.65625 8.88598 4.65625C8.55475 4.65625 8.28624 4.38867 8.28624 4.05859C8.28624 3.72852 8.55475 3.46094 8.88598 3.46094C9.21721 3.46094 9.48572 3.72852 9.48572 4.05859Z" fill="#AA161D"/>
<path d="M10.8569 3.24414C10.8569 3.40918 10.7226 3.54297 10.557 3.54297C10.3914 3.54297 10.2571 3.40918 10.2571 3.24414C10.2571 3.0791 10.3914 2.94531 10.557 2.94531C10.7226 2.94531 10.8569 3.0791 10.8569 3.24414Z" fill="#AA161D"/>
<path d="M7.68533 3.75977C7.68533 3.9248 7.55107 4.05859 7.38546 4.05859C7.21984 4.05859 7.08559 3.9248 7.08559 3.75977C7.08559 3.59473 7.21984 3.46094 7.38546 3.46094C7.55107 3.46094 7.68533 3.59473 7.68533 3.75977Z" fill="#AA161D"/>
<path d="M6.01429 1.93164C6.01429 2.09668 5.88003 2.23047 5.71442 2.23047C5.54881 2.23047 5.41455 2.09668 5.41455 1.93164C5.41455 1.7666 5.54881 1.63281 5.71442 1.63281C5.88003 1.63281 6.01429 1.7666 6.01429 1.93164Z" fill="#AA161D"/>
<path d="M10.557 5.33008C10.557 5.49512 10.4228 5.62891 10.2571 5.62891C10.0915 5.62891 9.95728 5.49512 9.95728 5.33008C9.95728 5.16504 10.0915 5.03125 10.2571 5.03125C10.4228 5.03125 10.557 5.16504 10.557 5.33008Z" fill="#AA161D"/>
<path d="M9.01415 5.62891C9.01415 5.79394 8.8799 5.92773 8.71428 5.92773C8.54867 5.92773 8.41441 5.79394 8.41441 5.62891C8.41441 5.46387 8.54867 5.33008 8.71428 5.33008C8.8799 5.33008 9.01415 5.46387 9.01415 5.62891Z" fill="#AA161D"/>
<path d="M12.0046 4.54492C12.0046 4.81351 11.7861 5.03125 11.5166 5.03125C11.2471 5.03125 11.0286 4.81351 11.0286 4.54492C11.0286 4.27633 11.2471 4.05859 11.5166 4.05859C11.7861 4.05859 12.0046 4.27633 12.0046 4.54492Z" fill="#AA161D"/>
<path d="M12.6408 5.92773C12.6408 6.09277 12.5066 6.22656 12.3409 6.22656C12.1753 6.22656 12.0411 6.09277 12.0411 5.92773C12.0411 5.7627 12.1753 5.62891 12.3409 5.62891C12.5066 5.62891 12.6408 5.7627 12.6408 5.92773Z" fill="#AA161D"/>
<path d="M24.9143 20.875C24.9143 26.4669 20.2516 31 14.5 31C8.74834 31 4.08571 26.4669 4.08571 20.875C4.08571 15.2831 8.74834 10.75 14.5 10.75C20.2516 10.75 24.9143 15.2831 24.9143 20.875Z" fill="#FFBB0D"/>
<path fill-rule="evenodd" clip-rule="evenodd" d="M25.6857 20.875C25.6857 26.8811 20.6777 31.75 14.5 31.75C8.3223 31.75 3.31429 26.8811 3.31429 20.875C3.31429 14.8689 8.3223 10 14.5 10C20.6777 10 25.6857 14.8689 25.6857 20.875ZM14.5 31C20.2517 31 24.9143 26.4669 24.9143 20.875C24.9143 15.2831 20.2517 10.75 14.5 10.75C8.74835 10.75 4.08571 15.2831 4.08571 20.875C4.08571 26.4669 8.74835 31 14.5 31Z" fill="#E89B05"/>
<path fill-rule="evenodd" clip-rule="evenodd" d="M4.85714 21.25C4.64412 21.25 4.47143 21.0821 4.47143 20.875C4.47143 15.4902 8.96137 11.125 14.5 11.125C14.713 11.125 14.8857 11.2929 14.8857 11.5C14.8857 11.7071 14.713 11.875 14.5 11.875C9.38742 11.875 5.24285 15.9044 5.24285 20.875C5.24285 21.0821 5.07016 21.25 4.85714 21.25Z" fill="#E8AA0A"/>
<path fill-rule="evenodd" clip-rule="evenodd" d="M24.1429 20.5C24.3559 20.5 24.5286 20.6679 24.5286 20.875C24.5286 26.2598 20.0386 30.625 14.5 30.625C14.287 30.625 14.1143 30.4571 14.1143 30.25C14.1143 30.0429 14.287 29.875 14.5 29.875C19.6126 29.875 23.7571 25.8456 23.7571 20.875C23.7571 20.6679 23.9298 20.5 24.1429 20.5Z" fill="#E8AA0A"/>
<path d="M22.2143 20.875C22.2143 25.0171 18.7605 28.375 14.5 28.375C10.2395 28.375 6.78572 25.0171 6.78572 20.875C6.78572 16.7329 10.2395 13.375 14.5 13.375C18.7605 13.375 22.2143 16.7329 22.2143 20.875Z" fill="#FFDD28"/>
<path fill-rule="evenodd" clip-rule="evenodd" d="M22.9857 20.875C22.9857 25.4313 19.1865 29.125 14.5 29.125C9.81347 29.125 6.01428 25.4313 6.01428 20.875C6.01428 16.3187 9.81347 12.625 14.5 12.625C19.1865 12.625 22.9857 16.3187 22.9857 20.875ZM14.5 28.375C18.7605 28.375 22.2143 25.0171 22.2143 20.875C22.2143 16.7329 18.7605 13.375 14.5 13.375C10.2395 13.375 6.78571 16.7329 6.78571 20.875C6.78571 25.0171 10.2395 28.375 14.5 28.375Z" fill="#E89B05"/>
<path fill-rule="evenodd" clip-rule="evenodd" d="M14.5 27.25C18.1214 27.25 21.0571 24.3958 21.0571 20.875C21.0571 20.6679 21.2298 20.5 21.4429 20.5C21.6559 20.5 21.8286 20.6679 21.8286 20.875C21.8286 24.81 18.5475 28 14.5 28C14.287 28 14.1143 27.8321 14.1143 27.625C14.1143 27.4179 14.287 27.25 14.5 27.25Z" fill="#ECC704"/>
<path fill-rule="evenodd" clip-rule="evenodd" d="M14.5 14.5C10.8786 14.5 7.94286 17.3542 7.94286 20.875C7.94286 21.0821 7.77017 21.25 7.55715 21.25C7.34412 21.25 7.17143 21.0821 7.17143 20.875C7.17143 16.94 10.4525 13.75 14.5 13.75C14.713 13.75 14.8857 13.9179 14.8857 14.125C14.8857 14.3321 14.713 14.5 14.5 14.5Z" fill="#FFEF9C"/>
<path d="M15.4206 23.875H14.1143V18.9795L12.5548 19.4497V18.417L15.2805 17.4678H15.4206V23.875Z" fill="#FFEF9C"/>
<path fill-rule="evenodd" clip-rule="evenodd" d="M16.192 23.875C16.192 24.2892 15.8466 24.625 15.4206 24.625H14.1143C13.6882 24.625 13.3428 24.2892 13.3428 23.875V19.9973L12.7834 20.166C12.5492 20.2366 12.2946 20.1949 12.0972 20.0535C11.8999 19.9121 11.7834 19.688 11.7834 19.4497V18.417C11.7834 18.1003 11.988 17.8177 12.2947 17.7109L15.0203 16.7617C15.1038 16.7326 15.1918 16.7178 15.2805 16.7178H15.4206C15.8466 16.7178 16.192 17.0536 16.192 17.4678V23.875ZM14.1143 18.9795V23.875H15.4206V17.4678H15.2805L12.5548 18.417V19.4497L14.1143 18.9795Z" fill="#E89B05"/>
</svg>
