<svg width="28" height="32" viewBox="0 0 28 32" fill="none" xmlns="http://www.w3.org/2000/svg">
<path d="M10.2185 1.36413C10.0829 1.13822 9.8388 1 9.57535 1H2.32464C1.74167 1 1.38158 1.63598 1.68152 2.13587L9.78152 15.6359C9.91706 15.8618 10.1612 16 10.4246 16H17.6754C18.2583 16 18.6184 15.364 18.3185 14.8641L10.2185 1.36413Z" fill="#C52229"/>
<path fill-rule="evenodd" clip-rule="evenodd" d="M9.57536 0.25H2.32464C1.1587 0.25 0.438529 1.52196 1.0384 2.52174L9.1384 16.0217C9.40949 16.4736 9.89775 16.75 10.4246 16.75H17.6754C18.8413 16.75 19.5615 15.478 18.9616 14.4783L10.8616 0.978257C10.5905 0.526449 10.1023 0.25 9.57536 0.25ZM9.57536 1C9.8388 1 10.0829 1.13822 10.2185 1.36413L18.3185 14.8641C18.6184 15.364 18.2583 16 17.6754 16H10.4246C10.1612 16 9.91706 15.8618 9.78152 15.6359L1.68152 2.13587C1.38159 1.63598 1.74167 1 2.32464 1H9.57536Z" fill="#9B0F15"/>
<path d="M18.0315 1.36413C18.1671 1.13822 18.4112 1 18.6746 1H25.9254C26.5083 1 26.8684 1.63598 26.5685 2.13587L18.4685 15.6359C18.3329 15.8618 18.0888 16 17.8254 16H10.5746C9.99167 16 9.63159 15.364 9.93153 14.8641L18.0315 1.36413Z" fill="#F1333B"/>
<path fill-rule="evenodd" clip-rule="evenodd" d="M18.6746 0.25H25.9254C27.0913 0.25 27.8115 1.52196 27.2116 2.52174L19.1116 16.0217C18.8405 16.4736 18.3523 16.75 17.8254 16.75H10.5746C9.4087 16.75 8.68853 15.478 9.2884 14.4783L17.3884 0.978257C17.6595 0.526449 18.1477 0.25 18.6746 0.25ZM18.6746 1C18.4112 1 18.1671 1.13822 18.0315 1.36413L9.93152 14.8641C9.63159 15.364 9.99167 16 10.5746 16H17.8254C18.0888 16 18.3329 15.8618 18.4685 15.6359L26.5685 2.13587C26.8684 1.63598 26.5083 1 25.9254 1H18.6746Z" fill="#9B0F15"/>
<path fill-rule="evenodd" clip-rule="evenodd" d="M18.8133 1.4257C18.9924 1.5297 19.0533 1.7592 18.9493 1.9383L15.5743 7.7508C15.4703 7.92991 15.2408 7.99079 15.0617 7.8868C14.8826 7.7828 14.8217 7.5533 14.9257 7.3742L18.3007 1.5617C18.4047 1.3826 18.6342 1.32171 18.8133 1.4257Z" fill="#FE666D"/>
<path fill-rule="evenodd" clip-rule="evenodd" d="M2.3117 1.4257C2.13259 1.5297 2.07171 1.7592 2.1757 1.9383L5.5507 7.7508C5.6547 7.92991 5.8842 7.99079 6.0633 7.8868C6.2424 7.7828 6.30329 7.5533 6.1993 7.3742L2.8243 1.5617C2.7203 1.3826 2.4908 1.32171 2.3117 1.4257Z" fill="#DF3840"/>
<path d="M9.4375 2.23047C9.4375 2.49582 9.22763 2.71094 8.96875 2.71094C8.70987 2.71094 8.5 2.49582 8.5 2.23047C8.5 1.96511 8.70987 1.75 8.96875 1.75C9.22763 1.75 9.4375 1.96511 9.4375 2.23047Z" fill="#AA161D"/>
<path d="M7.79116 2.34766C7.79116 2.67773 7.53011 2.94531 7.20808 2.94531C6.88605 2.94531 6.625 2.67773 6.625 2.34766C6.625 2.01758 6.88605 1.75 7.20808 1.75C7.53011 1.75 7.79116 2.01758 7.79116 2.34766Z" fill="#AA161D"/>
<path d="M9.25001 4.05859C9.25001 4.38867 8.98895 4.65625 8.66693 4.65625C8.3449 4.65625 8.08385 4.38867 8.08385 4.05859C8.08385 3.72852 8.3449 3.46094 8.66693 3.46094C8.98895 3.46094 9.25001 3.72852 9.25001 4.05859Z" fill="#AA161D"/>
<path d="M10.5831 3.24414C10.5831 3.40918 10.4526 3.54297 10.2915 3.54297C10.1305 3.54297 10 3.40918 10 3.24414C10 3.0791 10.1305 2.94531 10.2915 2.94531C10.4526 2.94531 10.5831 3.0791 10.5831 3.24414Z" fill="#AA161D"/>
<path d="M7.49961 3.75977C7.49961 3.9248 7.36909 4.05859 7.20807 4.05859C7.04706 4.05859 6.91653 3.9248 6.91653 3.75977C6.91653 3.59473 7.04706 3.46094 7.20807 3.46094C7.36909 3.46094 7.49961 3.59473 7.49961 3.75977Z" fill="#AA161D"/>
<path d="M5.87501 1.93164C5.87501 2.09668 5.74448 2.23047 5.58347 2.23047C5.42246 2.23047 5.29193 2.09668 5.29193 1.93164C5.29193 1.7666 5.42246 1.63281 5.58347 1.63281C5.74448 1.63281 5.87501 1.7666 5.87501 1.93164Z" fill="#AA161D"/>
<path d="M10.2915 5.33008C10.2915 5.49512 10.161 5.62891 10 5.62891C9.83899 5.62891 9.70847 5.49512 9.70847 5.33008C9.70847 5.16504 9.83899 5.03125 10 5.03125C10.161 5.03125 10.2915 5.16504 10.2915 5.33008Z" fill="#AA161D"/>
<path d="M8.79155 5.62891C8.79155 5.79394 8.66102 5.92773 8.50001 5.92773C8.33899 5.92773 8.20847 5.79394 8.20847 5.62891C8.20847 5.46387 8.33899 5.33008 8.50001 5.33008C8.66102 5.33008 8.79155 5.46387 8.79155 5.62891Z" fill="#AA161D"/>
<path d="M11.6989 4.54492C11.6989 4.81351 11.4865 5.03125 11.2245 5.03125C10.9624 5.03125 10.75 4.81351 10.75 4.54492C10.75 4.27633 10.9624 4.05859 11.2245 4.05859C11.4865 4.05859 11.6989 4.27633 11.6989 4.54492Z" fill="#AA161D"/>
<path d="M12.3175 5.92773C12.3175 6.09277 12.1869 6.22656 12.0259 6.22656C11.8649 6.22656 11.7344 6.09277 11.7344 5.92773C11.7344 5.7627 11.8649 5.62891 12.0259 5.62891C12.1869 5.62891 12.3175 5.7627 12.3175 5.92773Z" fill="#AA161D"/>
<path d="M24.25 20.875C24.25 26.4669 19.7169 31 14.125 31C8.53312 31 4 26.4669 4 20.875C4 15.2831 8.53312 10.75 14.125 10.75C19.7169 10.75 24.25 15.2831 24.25 20.875Z" fill="#BCCCD2"/>
<path fill-rule="evenodd" clip-rule="evenodd" d="M25 20.875C25 26.8811 20.1311 31.75 14.125 31.75C8.1189 31.75 3.25 26.8811 3.25 20.875C3.25 14.8689 8.1189 9.99999 14.125 9.99999C20.1311 9.99999 25 14.8689 25 20.875ZM14.125 31C19.7169 31 24.25 26.4669 24.25 20.875C24.25 15.2831 19.7169 10.75 14.125 10.75C8.53312 10.75 4 15.2831 4 20.875C4 26.4669 8.53312 31 14.125 31Z" fill="#81A5B0"/>
<path fill-rule="evenodd" clip-rule="evenodd" d="M4.75 21.25C4.54289 21.25 4.375 21.0821 4.375 20.875C4.375 15.4902 8.74022 11.125 14.125 11.125C14.3321 11.125 14.5 11.2929 14.5 11.5C14.5 11.7071 14.3321 11.875 14.125 11.875C9.15444 11.875 5.125 15.9044 5.125 20.875C5.125 21.0821 4.95711 21.25 4.75 21.25Z" fill="#D0DEE3"/>
<path fill-rule="evenodd" clip-rule="evenodd" d="M23.5 20.5C23.7071 20.5 23.875 20.6679 23.875 20.875C23.875 26.2598 19.5098 30.625 14.125 30.625C13.9179 30.625 13.75 30.4571 13.75 30.25C13.75 30.0429 13.9179 29.875 14.125 29.875C19.0956 29.875 23.125 25.8456 23.125 20.875C23.125 20.6679 23.2929 20.5 23.5 20.5Z" fill="#A2B9C1"/>
<path d="M21.625 20.875C21.625 25.0171 18.2671 28.375 14.125 28.375C9.98286 28.375 6.625 25.0171 6.625 20.875C6.625 16.7329 9.98286 13.375 14.125 13.375C18.2671 13.375 21.625 16.7329 21.625 20.875Z" fill="#C7D4D8"/>
<path fill-rule="evenodd" clip-rule="evenodd" d="M22.375 20.875C22.375 25.4313 18.6814 29.125 14.125 29.125C9.56865 29.125 5.875 25.4313 5.875 20.875C5.875 16.3186 9.56865 12.625 14.125 12.625C18.6814 12.625 22.375 16.3186 22.375 20.875ZM14.125 28.375C18.2671 28.375 21.625 25.0171 21.625 20.875C21.625 16.7329 18.2671 13.375 14.125 13.375C9.98286 13.375 6.625 16.7329 6.625 20.875C6.625 25.0171 9.98286 28.375 14.125 28.375Z" fill="#81A5B0"/>
<path fill-rule="evenodd" clip-rule="evenodd" d="M14.125 27.25C17.6458 27.25 20.5 24.3958 20.5 20.875C20.5 20.6679 20.6679 20.5 20.875 20.5C21.0821 20.5 21.25 20.6679 21.25 20.875C21.25 24.81 18.06 28 14.125 28C13.9179 28 13.75 27.8321 13.75 27.625C13.75 27.4179 13.9179 27.25 14.125 27.25Z" fill="#B5C3C8"/>
<path fill-rule="evenodd" clip-rule="evenodd" d="M14.125 14.5C10.6042 14.5 7.75 17.3542 7.75 20.875C7.75 21.0821 7.58211 21.25 7.375 21.25C7.16789 21.25 7 21.0821 7 20.875C7 16.94 10.19 13.75 14.125 13.75C14.3321 13.75 14.5 13.9179 14.5 14.125C14.5 14.3321 14.3321 14.5 14.125 14.5Z" fill="#D9EAEF"/>
<path d="M16.3164 23.6362V24.625H11.9395V23.7813L14.0093 21.562C14.2173 21.3306 14.3813 21.127 14.5015 20.9512C14.6216 20.7725 14.708 20.6128 14.7607 20.4722C14.8164 20.3286 14.8442 20.1924 14.8442 20.0635C14.8442 19.8701 14.812 19.7046 14.7476 19.5669C14.6831 19.4263 14.5879 19.3179 14.4619 19.2417C14.3389 19.1655 14.1865 19.1274 14.0049 19.1274C13.8115 19.1274 13.6445 19.1743 13.5039 19.2681C13.3662 19.3618 13.2607 19.4922 13.1875 19.6592C13.1172 19.8262 13.082 20.0151 13.082 20.2261H11.812C11.812 19.8452 11.9028 19.4966 12.0845 19.1802C12.2661 18.8608 12.5225 18.6074 12.8535 18.4199C13.1846 18.2295 13.5771 18.1343 14.0312 18.1343C14.4795 18.1343 14.8574 18.2075 15.165 18.354C15.4756 18.4976 15.71 18.7056 15.8682 18.978C16.0293 19.2476 16.1099 19.5698 16.1099 19.9448C16.1099 20.1558 16.0762 20.3623 16.0088 20.5645C15.9414 20.7637 15.8447 20.9629 15.7188 21.1621C15.5957 21.3584 15.4463 21.5576 15.2705 21.7598C15.0947 21.9619 14.8999 22.1714 14.686 22.3882L13.5742 23.6362H16.3164Z" fill="#D9EAEF"/>
<path d="M16.3164 23.6362H17.0664C17.0664 23.222 16.7306 22.8862 16.3164 22.8862V23.6362ZM16.3164 24.625V25.375C16.7306 25.375 17.0664 25.0392 17.0664 24.625H16.3164ZM11.9395 24.625H11.1895C11.1895 25.0392 11.5252 25.375 11.9395 25.375V24.625ZM11.9395 23.7813L11.391 23.2697C11.2615 23.4086 11.1895 23.5914 11.1895 23.7813H11.9395ZM14.0093 21.562L14.5578 22.0737L14.5671 22.0634L14.0093 21.562ZM14.5015 20.9512L15.1207 21.3743L15.1239 21.3696L14.5015 20.9512ZM14.7607 20.4722L14.0614 20.201L14.0585 20.2088L14.7607 20.4722ZM14.7476 19.5669L14.0657 19.8794L14.0683 19.8849L14.7476 19.5669ZM14.4619 19.2417L14.0671 19.8794L14.0738 19.8835L14.4619 19.2417ZM13.5039 19.2681L13.0879 18.644L13.0818 18.6481L13.5039 19.2681ZM13.1875 19.6592L12.5006 19.3579L12.4963 19.3681L13.1875 19.6592ZM13.082 20.2261V20.9761C13.4962 20.9761 13.832 20.6403 13.832 20.2261H13.082ZM11.812 20.2261H11.062C11.062 20.6403 11.3978 20.9761 11.812 20.9761V20.2261ZM12.0845 19.1802L12.7349 19.5536L12.7364 19.551L12.0845 19.1802ZM12.8535 18.4199L13.2231 19.0725L13.2275 19.07L12.8535 18.4199ZM15.165 18.354L14.8426 19.0312L14.8503 19.0348L15.165 18.354ZM15.8682 18.978L15.2195 19.3547L15.2244 19.3629L15.8682 18.978ZM16.0088 20.5645L16.7193 20.8048L16.7203 20.8016L16.0088 20.5645ZM15.7188 21.1621L15.0848 20.7613L15.0833 20.7638L15.7188 21.1621ZM14.686 22.3882L14.1521 21.8615C14.1432 21.8705 14.1345 21.8798 14.126 21.8893L14.686 22.3882ZM13.5742 23.6362L13.0142 23.1374C12.8177 23.358 12.769 23.6735 12.8899 23.9431C13.0108 24.2127 13.2787 24.3862 13.5742 24.3862V23.6362ZM15.5664 23.6362V24.625H17.0664V23.6362H15.5664ZM16.3164 23.875H11.9395V25.375H16.3164V23.875ZM12.6895 24.625V23.7813H11.1895V24.625H12.6895ZM12.4879 24.2928L14.5577 22.0736L13.4608 21.0505L11.391 23.2697L12.4879 24.2928ZM14.5671 22.0634C14.7882 21.8174 14.9755 21.5868 15.1207 21.3743L13.8822 20.528C13.7872 20.6671 13.6464 20.8438 13.4515 21.0607L14.5671 22.0634ZM15.1239 21.3696C15.2638 21.1614 15.3831 20.9487 15.463 20.7355L14.0585 20.2088C14.033 20.2769 13.9793 20.3835 13.879 20.5328L15.1239 21.3696ZM15.46 20.7433C15.5428 20.5297 15.5942 20.3012 15.5942 20.0635H14.0942C14.0942 20.0835 14.09 20.1275 14.0615 20.201L15.46 20.7433ZM15.5942 20.0635C15.5942 19.7891 15.5487 19.5094 15.4268 19.2489L14.0683 19.8849C14.0753 19.8998 14.0942 19.9511 14.0942 20.0635H15.5942ZM15.4294 19.2544C15.3056 18.9844 15.1114 18.758 14.85 18.5999L14.0738 19.8835C14.0736 19.8834 14.0722 19.8825 14.0701 19.8807C14.068 19.879 14.066 19.877 14.0643 19.8751C14.0626 19.8732 14.0619 19.8721 14.0621 19.8723C14.0622 19.8725 14.0636 19.8747 14.0658 19.8794L15.4294 19.2544ZM14.8567 18.604C14.5882 18.4378 14.2907 18.3774 14.0049 18.3774V19.8774C14.0437 19.8774 14.0652 19.8816 14.0735 19.8836C14.0808 19.8855 14.0769 19.8854 14.0671 19.8794L14.8567 18.604ZM14.0049 18.3774C13.6854 18.3774 13.3688 18.4568 13.0879 18.644L13.9199 19.8921C13.9203 19.8919 13.9376 19.8774 14.0049 19.8774V18.3774ZM13.0818 18.6481C12.8168 18.8286 12.6249 19.0746 12.5007 19.3579L13.8743 19.9604C13.8966 19.9098 13.9156 19.8951 13.926 19.888L13.0818 18.6481ZM12.4963 19.3681C12.3813 19.6411 12.332 19.9314 12.332 20.2261H13.832C13.832 20.0989 13.853 20.0112 13.8787 19.9502L12.4963 19.3681ZM13.082 19.4761H11.812V20.9761H13.082V19.4761ZM12.562 20.2261C12.562 19.9703 12.6214 19.7513 12.7349 19.5536L11.434 18.8068C11.1842 19.2419 11.062 19.7202 11.062 20.2261H12.562ZM12.7364 19.551C12.8486 19.3537 13.0055 19.1958 13.2231 19.0725L12.4839 17.7673C12.0394 18.0191 11.6836 18.368 11.4326 18.8094L12.7364 19.551ZM13.2275 19.07C13.425 18.9564 13.6835 18.8843 14.0312 18.8843V17.3843C13.4708 17.3843 12.9442 17.5026 12.4796 17.7698L13.2275 19.07ZM14.0312 18.8843C14.4016 18.8843 14.6622 18.9453 14.8426 19.0312L15.4875 17.6769C15.0526 17.4698 14.5574 17.3843 14.0312 17.3843V18.8843ZM14.8503 19.0348C15.0336 19.1195 15.1455 19.227 15.2196 19.3546L16.5168 18.6014C16.2745 18.1841 15.9176 17.8756 15.4797 17.6732L14.8503 19.0348ZM15.2244 19.3629C15.3036 19.4953 15.3599 19.6789 15.3599 19.9448H16.8599C16.8599 19.4608 16.755 18.9998 16.5119 18.5932L15.2244 19.3629ZM15.3599 19.9448C15.3599 20.0743 15.3394 20.2008 15.2973 20.3273L16.7203 20.8016C16.8129 20.5238 16.8599 20.2372 16.8599 19.9448H15.3599ZM15.2983 20.3242C15.2521 20.4607 15.1828 20.6064 15.0849 20.7613L16.3526 21.563C16.5067 21.3194 16.6307 21.0666 16.7192 20.8048L15.2983 20.3242ZM15.0833 20.7638C14.9838 20.9224 14.8586 21.0905 14.7046 21.2676L15.8365 22.2519C16.034 22.0248 16.2076 21.7944 16.3542 21.5605L15.0833 20.7638ZM14.7046 21.2676C14.5404 21.4565 14.3564 21.6544 14.1521 21.8615L15.22 22.9149C15.4434 22.6884 15.6491 22.4674 15.8365 22.2519L14.7046 21.2676ZM14.126 21.8893L13.0142 23.1374L14.1342 24.1351L15.246 22.8871L14.126 21.8893ZM13.5742 24.3862H16.3164V22.8862H13.5742V24.3862Z" fill="#81A5B0"/>
</svg>
